<svg width="63" height="63" viewBox="0 0 63 63" fill="none" xmlns="http://www.w3.org/2000/svg">
<g clip-path="url(#clip0_13_186)">
<mask id="mask0_13_186" style="mask-type:luminance" maskUnits="userSpaceOnUse" x="0" y="0" width="63" height="63">
<path d="M63 0H0V63H63V0Z" fill="white"/>
</mask>
<g mask="url(#mask0_13_186)">
<path d="M63 0H0V63H63V0Z" fill="#FF0032"/>
<path d="M19.1652 4.84503L14.535 14.461L9.90486 4.84503H4.85242V19.3801H8.39357V8.97885L12.92 17.7651H16.15L20.6765 8.97885V19.3801H24.2251V4.84503H19.1652Z" fill="white"/>
<path d="M41.9753 4.84503V7.74167H48.302L48.2872 19.3801H51.8284L51.8432 7.74167H58.1772V4.84503H41.9753Z" fill="white"/>
<path d="M54.6286 53.3026C54.5397 53.8804 54.3101 54.3619 53.9323 54.7175C53.5767 55.0583 53.1025 55.2954 52.5099 55.4362C51.9246 55.5695 51.0727 55.651 50.1614 55.651C49.2502 55.651 48.3909 55.5325 47.6871 55.288C47.0055 55.0583 46.4647 54.6509 46.0869 54.0804C45.7017 53.51 45.5091 52.6803 45.5091 51.6283V50.1392C45.5091 49.0798 45.7017 48.2575 46.0869 47.6871C46.4647 47.1167 47.0055 46.7166 47.6871 46.4795C48.3909 46.2425 49.2206 46.1165 50.1614 46.1165C51.1023 46.1165 51.9246 46.198 52.5099 46.3314C53.1025 46.4647 53.5767 46.7092 53.9323 47.05C54.3027 47.413 54.5397 47.8871 54.6286 48.465H58.1772C58.0809 47.2648 57.6734 46.2425 56.9623 45.4276C56.3103 44.6793 55.4139 44.1311 54.2953 43.7977C53.2063 43.4718 51.7839 43.3014 50.1689 43.3014C48.4724 43.3014 46.9981 43.5459 45.7832 44.0274C44.5534 44.5163 43.6051 45.3313 42.9458 46.4499C42.3161 47.5241 41.9901 48.9539 41.9679 50.7097V50.8727L42.1605 50.8801L41.9679 50.8875V51.0504C41.9901 52.8062 42.3161 54.236 42.9458 55.3102C43.5977 56.4289 44.5534 57.2438 45.7832 57.7327C46.9907 58.2143 48.465 58.4587 50.1689 58.4587C51.8654 58.4587 53.2137 58.2883 54.2953 57.9624C55.4139 57.629 56.3103 57.0808 56.9623 56.3326C57.6734 55.5176 58.0809 54.4953 58.1772 53.2952L54.6286 53.3026Z" fill="white"/>
</g>
</g>
<defs>
<clipPath id="clip0_13_186">
<rect width="63" height="63" fill="white"/>
</clipPath>
</defs>
</svg>
