<svg width="32" height="32" viewBox="0 0 32 32" fill="none" xmlns="http://www.w3.org/2000/svg">
<path fill-rule="evenodd" clip-rule="evenodd" d="M21.635 12.3629C21.635 17.4839 17.4837 21.6351 12.3629 21.6351C7.24199 21.6351 3.09071 17.4839 3.09071 12.3629C3.09071 7.24204 7.24199 3.09073 12.3629 3.09073C17.4837 3.09073 21.635 7.24204 21.635 12.3629ZM19.944 22.1294C17.8503 23.7568 15.2197 24.7259 12.3629 24.7259C5.53503 24.7259 0 19.1908 0 12.3629C0 5.53507 5.53503 0 12.3629 0C19.1906 0 24.7257 5.53507 24.7257 12.3629C24.7257 15.2198 23.7567 17.8504 22.1293 19.9439L32 29.8146L29.8145 32L19.944 22.1294Z" fill="black"/>
</svg>
