<svg width="31" height="31" viewBox="0 0 31 31" fill="none" xmlns="http://www.w3.org/2000/svg">
<path fill-rule="evenodd" clip-rule="evenodd" d="M17.825 0L19.0622 0.920511L20.1026 4.38843L23.2905 2.67187L24.8162 2.8958L28.1042 6.18385L28.3282 7.70956L26.6116 10.8974L30.0795 11.9378L31 13.175V17.825L30.0795 19.0622L26.6116 20.1026L28.3281 23.2905L28.1042 24.8162L24.8161 28.1043L23.2904 28.3281L20.1026 26.6116L19.0622 30.0795L17.825 31H13.175L11.9378 30.0795L10.8974 26.6116L7.70953 28.3281L6.18381 28.1041L2.89574 24.8162L2.67185 23.2905L4.38839 20.1025L0.920528 19.0622L0 17.825V13.175L0.920528 11.9378L4.38839 10.8974L2.67185 7.7096L2.89574 6.18386L6.18381 2.89581L7.70953 2.67189L10.8974 4.38843L11.9378 0.920511L13.175 0H17.825ZM18.1364 6.82489L16.864 2.58333H14.136L12.8636 6.82489L12.2703 7.05181C12.1151 7.11119 11.962 7.17473 11.811 7.24229L11.2308 7.50197L7.33098 5.40206L5.40209 7.331L7.502 11.2308L7.24229 11.8111C7.17478 11.962 7.11123 12.1151 7.05181 12.2703L6.82482 12.8636L2.58333 14.136V16.864L6.82482 18.1364L7.05181 18.7297C7.11123 18.8849 7.17478 19.038 7.24229 19.1888L7.502 19.7692L5.40209 23.669L7.33098 25.5979L11.2308 23.498L11.811 23.7577C11.962 23.8252 12.1151 23.8888 12.2703 23.9482L12.8636 24.1752L14.136 28.4167H16.864L18.1364 24.1752L18.7297 23.9482C18.8849 23.8888 19.038 23.8252 19.1889 23.7577L19.7692 23.498L23.669 25.5979L25.5979 23.669L23.4981 19.7692L23.7577 19.189C23.8253 19.038 23.8888 18.8849 23.9482 18.7297L24.1751 18.1364L28.4167 16.864V14.136L24.1751 12.8636L23.9482 12.2703C23.8888 12.1151 23.8253 11.9621 23.7577 11.8111L23.4981 11.2308L25.598 7.33098L23.6691 5.40204L19.7692 7.50197L19.1889 7.24229C19.038 7.17473 18.8849 7.11119 18.7297 7.05181L18.1364 6.82489ZM11.625 15.5C11.625 17.64 13.36 19.375 15.5 19.375C17.64 19.375 19.375 17.64 19.375 15.5C19.375 13.36 17.64 11.625 15.5 11.625C13.36 11.625 11.625 13.36 11.625 15.5ZM9.04167 15.5C9.04167 19.0669 11.9331 21.9583 15.5 21.9583C19.0668 21.9583 21.9583 19.0669 21.9583 15.5C21.9583 11.9332 19.0668 9.04167 15.5 9.04167C11.9331 9.04167 9.04167 11.9332 9.04167 15.5Z" fill="black"/>
</svg>
