<svg width="292" height="116" viewBox="0 0 292 116" fill="none" xmlns="http://www.w3.org/2000/svg">
<path d="M139.532 53.7858H143.925L150.267 37.0171V53.7858H154.312V33.6986H148.168L141.969 50.1486L135.833 33.6986H129.491V53.7858H133.217V37.1033L139.532 53.7858Z" fill="black"/>
<path d="M165.253 37.0171V53.7858H169.323V37.0171H177.532V33.6986H157.044V37.0171H165.253Z" fill="black"/>
<path d="M178.293 43.7741C178.293 51.431 182.337 54.1383 189.437 54.1383C195.779 54.1383 199.332 52.2447 200.055 47.5013H195.951C195.284 50.2686 193.132 50.966 189.437 50.966C185.1 50.966 182.39 49.3949 182.39 44.7378V42.7017C182.39 37.9583 185.156 36.5297 189.437 36.5297C193.279 36.5297 195.4 37.3434 195.925 40.2269H200.029C199.448 35.2773 195.842 33.3574 189.437 33.3574C182.337 33.3574 178.293 36.151 178.293 43.7778V43.7741Z" fill="black"/>
<path d="M129.491 61.2477V81.3348H146.834V78.1626H133.561V72.6018H143.693V69.5458H133.561V64.4237H146.714V61.2514H129.487L129.491 61.2477Z" fill="black"/>
<path d="M152.565 81.3348L159.316 73.648L166.093 81.3348H170.984L161.962 71.0869L170.605 61.2477H166.126L159.634 68.6721L153.12 61.2477H148.228L156.988 71.2331L148.112 81.3348H152.569H152.565Z" fill="black"/>
<path d="M190.546 72.2793C190.546 76.7902 187.93 78.5075 182.75 78.5075C177.57 78.5075 174.946 76.7602 174.946 72.2793V70.2132C174.946 65.7885 177.54 64.0712 182.75 64.0712C187.96 64.0712 190.546 65.7885 190.546 70.2132V72.2793ZM170.849 71.2031C170.849 78.9462 174.98 81.6835 182.75 81.6835C190.52 81.6835 194.65 78.9462 194.65 71.2031C194.65 63.46 190.52 60.8989 182.75 60.8989C174.98 60.8989 170.849 63.5762 170.849 71.2031Z" fill="black"/>
<path d="M198.264 61.2477V81.3348H214.614V78.0164H202.334V61.2477H198.264Z" fill="black"/>
<path d="M230.888 61.2477L223.444 78.3951L216.049 61.2477H211.69L220.446 81.3348H225.948L234.738 61.2477H230.896H230.888Z" fill="black"/>
<path d="M237.111 61.2477V81.3348H254.457V78.1626H241.185V72.6018H251.309V69.5458H241.185V64.4237H254.338V61.2514H237.107L237.111 61.2477Z" fill="black"/>
<path d="M112.241 23.6456H44.3793V91.534H112.241V23.6456Z" fill="#FF0032"/>
<path d="M66.4115 33.9236H55.8977V50.726H69.6238V64.4574H55.8977V81.2598H66.4115L79.5604 64.4574V50.726L66.4115 33.9236Z" fill="white"/>
<path d="M90.0818 33.9236H79.5604V50.726H93.2865V64.4574H79.5604V81.2598H90.0818L103.223 64.4574V50.726L90.0818 33.9236Z" fill="white"/>
</svg>
