<svg width="292" height="124" viewBox="0 0 292 124" fill="none" xmlns="http://www.w3.org/2000/svg">
<path d="M121.501 17.9675H33.6582V105.81H121.501V17.9675Z" fill="#FF0032"/>
<path fill-rule="evenodd" clip-rule="evenodd" d="M46.9554 71.5594V31.2646H63.0733V71.5594C63.0733 74.231 65.2372 76.3948 67.9087 76.3948H108.203V92.5127H67.9087C56.3361 92.5127 46.9554 83.1321 46.9554 71.5594Z" fill="white"/>
<path fill-rule="evenodd" clip-rule="evenodd" d="M69.5205 57.0533V31.2646H85.6384V53.8297H108.203V69.9476H82.4148C75.2947 69.9476 69.5205 64.1734 69.5205 57.0533Z" fill="white"/>
<path d="M138.408 87.9515C139.307 87.9515 140.02 87.7661 140.544 87.3954C141.092 87.0247 141.507 86.4324 141.781 85.6144C142.079 84.8004 142.281 83.7366 142.381 82.423C142.482 81.1134 142.531 79.5299 142.531 77.6763V66.9216H165.015V92.5128H159.769V71.1486H147.402V77.6763C147.402 80.4204 147.289 82.7333 147.064 84.611C146.838 86.4888 146.427 88.024 145.827 89.2087C145.226 90.3692 144.388 91.2113 143.316 91.7311C142.24 92.2509 140.854 92.5088 139.158 92.5088H137.623V87.9474H138.408V87.9515Z" fill="black"/>
<path d="M176.523 92.5128H170.866V66.9216H176.112V86.1342L191.59 66.9216H197.211V92.5128H192.001V73.3003L176.523 92.5128Z" fill="black"/>
<path d="M208.316 66.9216V77.2693H223.644V66.9216H228.89V92.5128H223.644V81.4962H208.316V92.5128H203.069V66.9216H208.316Z" fill="black"/>
<path d="M260.248 66.9216L248.22 79.2357L260.961 92.5128H254.216L243.61 81.5728H239.939V92.5128H234.693V66.9216H239.939V77.3459H243.799L254.03 66.9216H260.252H260.248Z" fill="black"/>
<path d="M144.739 36.0478V57.2992H139.944V31.708H148.111L156.017 52.6653L164 31.708H171.906V57.2992H166.695V35.9349L158.528 57.2992H152.87L144.739 36.0478Z" fill="black"/>
<path d="M175.423 35.9388V31.7119H201.804V35.9388H191.235V57.3031H185.989V35.9388H175.419H175.423Z" fill="black"/>
<path d="M202.787 44.5419C202.787 42.1202 203.098 40.0651 203.722 38.3849C204.371 36.6804 205.31 35.3063 206.535 34.2667C207.76 33.2029 209.259 32.4373 211.032 31.9659C212.805 31.4945 214.844 31.2607 217.14 31.2607C221.262 31.2607 224.474 31.9417 226.771 33.2997C229.068 34.6334 230.405 36.8738 230.78 40.0128H225.497C225.147 38.1834 224.285 36.9463 222.911 36.3056C221.537 35.6368 219.614 35.3023 217.14 35.3023C215.766 35.3023 214.517 35.4272 213.393 35.673C212.269 35.9188 211.306 36.354 210.508 36.9705C209.734 37.5628 209.134 38.3687 208.711 39.3801C208.288 40.3956 208.074 41.6568 208.074 43.1638V45.7588C208.074 47.2416 208.288 48.4908 208.711 49.5062C209.134 50.5216 209.734 51.3356 210.508 51.9561C211.306 52.5726 212.257 53.0199 213.357 53.2899C214.481 53.5639 215.742 53.6969 217.14 53.6969C218.341 53.6969 219.401 53.6364 220.324 53.5115C221.275 53.3866 222.097 53.165 222.798 52.8426C223.499 52.4961 224.071 52.0408 224.522 51.4686C224.974 50.8964 225.308 50.1711 225.534 49.2806H230.816C230.341 52.2986 228.955 54.4625 226.658 55.772C224.385 57.0816 221.21 57.7384 217.14 57.7384C214.844 57.7384 212.805 57.5168 211.032 57.0695C209.259 56.5981 207.76 55.8446 206.535 54.809C205.31 53.7734 204.375 52.4115 203.722 50.7271C203.098 49.0468 202.787 46.9797 202.787 44.5338V44.5419Z" fill="black"/>
</svg>
