<svg width="292" height="124" viewBox="0 0 292 124" fill="none" xmlns="http://www.w3.org/2000/svg">
<path d="M57.3234 111.905H150.223L159.608 60.7947H113.168L103.783 111.905L85.0059 9.68481H38.5662L57.3193 111.905H57.3234Z" fill="#FF0032"/>
<path d="M174.875 65.8759V82.8441H169.464V60.8794H178.792L184.236 77.2713L189.712 60.8794H198.722V82.8441H192.802V65.8115L187.072 82.8441H180.609L174.879 65.8759H174.875Z" fill="#FF0032"/>
<path d="M200.628 65.6543V60.8794H224.341V65.6543H215.428V82.8441H209.509V65.6543H200.628Z" fill="#FF0032"/>
<path d="M224.377 71.8959C224.377 69.7723 224.663 67.9792 225.236 66.5165C225.808 65.0538 226.646 63.8691 227.75 62.9665C228.854 62.0639 230.192 61.4192 231.759 61.0243C233.331 60.6335 235.124 60.436 237.139 60.436C238.984 60.436 240.636 60.573 242.087 60.8511C243.541 61.1291 244.791 61.5844 245.842 62.2211C246.894 62.8578 247.732 63.6919 248.357 64.7194C248.981 65.7509 249.368 67.0081 249.517 68.491H243.533C243.405 67.7898 243.179 67.2176 242.848 66.7704C242.518 66.3231 242.083 65.9685 241.543 65.7026C241.003 65.4366 240.366 65.2553 239.633 65.1626C238.9 65.0659 238.069 65.0175 237.135 65.0175C236.135 65.0175 235.225 65.0981 234.399 65.2553C233.573 65.4124 232.855 65.7026 232.251 66.1136C231.646 66.5286 231.179 67.0968 230.849 67.818C230.518 68.5393 230.357 69.4742 230.357 70.6185V73.1329C230.357 74.2571 230.522 75.1759 230.849 75.885C231.179 76.5983 231.638 77.1624 232.235 77.5895C232.827 78.0126 233.544 78.3068 234.382 78.4639C235.221 78.6251 236.147 78.7017 237.167 78.7017C238.057 78.7017 238.859 78.6533 239.568 78.5566C240.278 78.4599 240.906 78.2906 241.446 78.0489C241.986 77.8071 242.433 77.4767 242.784 77.0617C243.135 76.6466 243.392 76.1107 243.566 75.4539H249.549C249.38 76.8763 248.977 78.0811 248.341 79.0683C247.704 80.0556 246.862 80.8615 245.81 81.486C244.758 82.1106 243.509 82.5699 242.055 82.856C240.6 83.1421 238.96 83.2872 237.135 83.2872C235.12 83.2872 233.327 83.0978 231.755 82.715C230.184 82.3322 228.846 81.7036 227.746 80.8212C226.642 79.9427 225.804 78.7742 225.232 77.3195C224.659 75.8649 224.373 74.0557 224.373 71.8918L224.377 71.8959Z" fill="#FF0032"/>
<path d="M175.387 90.2944V107.484H188.152V112.259H169.468V90.2944H175.387Z" fill="#FF0032"/>
<path d="M196.014 90.2944V112.259H190.095V90.2944H196.014Z" fill="#FF0032"/>
<path d="M224.216 90.2944L214.827 112.259H206.805L197.477 90.2944H203.811L211.197 107.931L218.676 90.2944H224.216Z" fill="#FF0032"/>
<path d="M245.669 90.2944V94.88H231.566V98.8611H242.292V103.221H231.566V107.678H245.762V112.263H225.643V90.2985H245.665L245.669 90.2944Z" fill="#FF0032"/>
</svg>
