<svg width="292" height="125" viewBox="0 0 292 125" fill="none" xmlns="http://www.w3.org/2000/svg">
<mask id="mask0_38_1042" style="mask-type:luminance" maskUnits="userSpaceOnUse" x="29" y="32" width="68" height="68">
<path d="M96.6511 32.2498H29.653V99.2881H96.6511V32.2498Z" fill="white"/>
</mask>
<g mask="url(#mask0_38_1042)">
<path d="M96.6511 32.2498H29.653V99.2881H96.6511V32.2498Z" fill="#FF0032"/>
<path d="M54.4423 90.5763C59.9909 90.5763 64.4918 86.0754 64.4918 80.5188C64.4918 74.9621 59.9909 70.4612 54.4423 70.4612C48.8937 70.4612 44.3928 74.9621 44.3928 80.5188C44.3928 86.0754 48.8937 90.5763 54.4423 90.5763Z" fill="white"/>
<path d="M64.4918 40.9656V58.3971L83.2531 67.7817V50.3502L64.4918 40.9656Z" fill="white"/>
</g>
<path d="M121.279 61.5362L115.074 45.1523V61.5362H111.415V41.8078H117.649L123.681 57.962L129.769 41.8078H135.801V61.5362H131.828V45.0677L125.595 61.5362H121.279ZM146.548 45.0677H138.485V41.8078H158.612V45.0677H150.549V61.5362H146.548V45.0677ZM159.362 51.7002C159.362 44.2094 163.335 41.4653 170.314 41.4653C176.604 41.4653 180.15 43.3511 180.722 48.2147H176.689C176.173 45.386 174.085 44.5841 170.314 44.5841C166.111 44.5841 163.395 45.9864 163.395 50.6445V52.6471C163.395 57.2206 166.055 58.7639 170.314 58.7639C173.944 58.7639 176.06 58.0789 176.717 55.363H180.75C180.037 60.0251 176.547 61.8827 170.314 61.8827C163.339 61.8827 159.362 59.2232 159.362 51.7042V51.7002Z" fill="black"/>
<path d="M115.074 74.7808V91.1647H111.415V71.4364H117.649L123.681 87.5906L129.769 71.4364H135.801V91.1647H131.828V74.6962L125.595 91.1647H121.279L115.074 74.7808ZM142.575 71.4364L149.494 82.3885L155.868 71.4364H159.785L148.321 91.1647H144.376L147.406 85.9304L138.171 71.4324H142.575V71.4364ZM164.004 85.5033C164.193 86.6275 164.814 87.4092 165.861 87.8484C166.929 88.2877 168.396 88.5052 170.266 88.5052C172.268 88.5052 173.727 88.2877 174.642 87.8484C175.556 87.3931 176.016 86.6839 176.016 85.733V85.0479C176.016 84.2098 175.661 83.5812 174.956 83.1622C174.251 82.7431 173.211 82.5336 171.841 82.5336H166.494V79.6162H171.841C173.022 79.6162 173.92 79.4067 174.529 78.9876C175.157 78.5686 175.472 77.9762 175.472 77.2147V76.6143C175.472 75.6996 175.044 75.0508 174.186 74.668C173.348 74.2852 172.002 74.0958 170.153 74.0958C168.456 74.0958 167.094 74.2973 166.063 74.6962C165.035 75.079 164.423 75.8003 164.233 76.8681H160.2C160.409 74.7889 161.372 73.3141 163.089 72.4357C164.806 71.5411 167.159 71.0898 170.153 71.0898C173.413 71.0898 175.786 71.5371 177.273 72.4357C178.78 73.3141 179.533 74.6358 179.533 76.4088C179.533 77.5531 179.191 78.5041 178.506 79.2697C177.837 80.0313 176.906 80.547 175.705 80.813C177.059 81.0789 178.115 81.5947 178.881 82.3563C179.662 83.1178 180.053 84.1292 180.053 85.3864C180.053 87.4253 179.263 88.9606 177.68 89.9881C176.116 90.9995 173.646 91.5032 170.274 91.5032C167.187 91.5032 164.745 91.0478 162.952 90.1291C161.179 89.1943 160.188 87.651 159.978 85.4952H164.012L164.004 85.5033ZM187.483 71.4364V78.0407H195.776C198.121 78.0407 199.838 78.6209 200.922 79.7855C202.01 80.9298 202.55 82.5416 202.55 84.6168C202.55 86.692 201.998 88.2594 200.89 89.4199C199.802 90.5804 198.097 91.1647 195.772 91.1647H183.478V71.4364H187.479H187.483ZM198.52 84.1292C198.52 83.2911 198.262 82.594 197.747 82.042C197.251 81.4899 196.393 81.2119 195.172 81.2119H187.479V87.9895H195.172C196.409 87.9895 197.279 87.7235 197.775 87.1876C198.27 86.6356 198.516 85.9183 198.516 85.0439V84.1292H198.52ZM208.928 71.4364V91.1647H204.927V71.4364H208.928ZM232.888 71.4364L223.708 80.9298L233.432 91.1647H228.286L220.195 82.731H217.394V91.1647H213.393V71.4364H217.394V79.4712H220.34L228.145 71.4364H232.892H232.888ZM247.736 71.4364L256.428 91.1647H252.253L250.053 86.1037H239.504L237.304 91.1647H233.528L242.248 71.4364H247.736ZM240.789 83.1581H248.768L244.767 74.0354L240.793 83.1581H240.789Z" fill="black"/>
</svg>
